<mxfile host="app.diagrams.net" modified="2022-10-04T13:04:26.197Z" agent="5.0 (X11; CrOS x86_64 14909.132.0) AppleWebKit/537.36 (KHTML, like Gecko) Chrome/104.0.0.0 Safari/537.36" etag="aERBjPcQusEb10JMbLO6" version="20.4.0" type="github">
  <diagram id="8aHjTuVdDUwx5xcK955B" name="Page-1">
    <mxGraphModel dx="1178" dy="857" grid="1" gridSize="10" guides="1" tooltips="1" connect="1" arrows="1" fold="1" page="1" pageScale="1" pageWidth="291" pageHeight="413" math="0" shadow="0">
      <root>
        <mxCell id="0" />
        <mxCell id="1" parent="0" />
        <mxCell id="v_aprBp19KvxG6Y_NhS7-2" value="&lt;div style=&quot;&quot;&gt;&lt;font style=&quot;font-size: 25px;&quot;&gt;Immigrants&lt;/font&gt;&lt;/div&gt;" style="rounded=1;whiteSpace=wrap;html=1;fontFamily=Libre Baskerville;fontSource=https%3A%2F%2Ffonts.googleapis.com%2Fcss%3Ffamily%3DLibre%2BBaskerville;dashed=1;fillColor=none;align=left;horizontal=1;verticalAlign=top;spacingLeft=16;spacingRight=0;spacingBottom=11;spacingTop=16;" vertex="1" parent="1">
          <mxGeometry x="-60" y="-351" width="780" height="290" as="geometry" />
        </mxCell>
        <mxCell id="v_aprBp19KvxG6Y_NhS7-3" value="&lt;h1&gt;&lt;i&gt;a History of Immigration in America&lt;/i&gt;&lt;/h1&gt;" style="text;html=1;strokeColor=none;fillColor=none;spacing=5;spacingTop=-20;whiteSpace=wrap;overflow=hidden;rounded=0;dashed=1;fontFamily=Libre Baskerville;fontSource=https%3A%2F%2Ffonts.googleapis.com%2Fcss%3Ffamily%3DLibre%2BBaskerville;" vertex="1" parent="1">
          <mxGeometry x="-291" y="-400" width="530" height="120" as="geometry" />
        </mxCell>
        <mxCell id="v_aprBp19KvxG6Y_NhS7-4" value="&lt;span style=&quot;font-size: 12px; line-height: 0.6;&quot;&gt;&lt;b&gt;Key&lt;/b&gt;&lt;br&gt;White dotted border with text at top left: Who did this affect?&lt;br&gt;&lt;br&gt;&lt;/span&gt;" style="rounded=1;html=1;dashed=1;fontFamily=Libre Baskerville;fontSource=https%3A%2F%2Ffonts.googleapis.com%2Fcss%3Ffamily%3DLibre%2BBaskerville;fontSize=25;fillColor=none;strokeWidth=6;align=left;horizontal=1;verticalAlign=top;spacing=16;labelPosition=center;verticalLabelPosition=middle;textDirection=ltr;whiteSpace=wrap;" vertex="1" parent="1">
          <mxGeometry x="-280" y="-351" width="190" height="281" as="geometry" />
        </mxCell>
      </root>
    </mxGraphModel>
  </diagram>
</mxfile>
